<svg width="25" height="25" viewBox="0 0 25 25" fill="none" xmlns="http://www.w3.org/2000/svg">
<path d="M4.5 11.75C4.30109 11.75 4.11032 11.829 3.96967 11.9697C3.82902 12.1103 3.75 12.3011 3.75 12.5C3.75 12.6989 3.82902 12.8897 3.96967 13.0303C4.11032 13.171 4.30109 13.25 4.5 13.25L13.75 13.25L13.75 18.5C13.7501 18.6482 13.7942 18.7931 13.8766 18.9163C13.959 19.0395 14.0761 19.1356 14.2131 19.1923C14.35 19.249 14.5007 19.2638 14.6461 19.235C14.7915 19.2061 14.9251 19.1347 15.03 19.03L21.03 13.03C21.1705 12.8894 21.2493 12.6987 21.2493 12.5C21.2493 12.3012 21.1705 12.1106 21.03 11.97L15.03 5.96999C14.9251 5.86523 14.7915 5.79391 14.6461 5.76502C14.5007 5.73614 14.35 5.75099 14.2131 5.8077C14.0761 5.86441 13.959 5.96044 13.8766 6.08366C13.7942 6.20687 13.7501 6.35175 13.75 6.49999V11.75L4.5 11.75Z" fill="#240076"/>
</svg>
