<svg width="26" height="20" viewBox="0 0 26 20" fill="none" xmlns="http://www.w3.org/2000/svg">
<path d="M22.2945 0.0820312H3.70703C2.87823 0.0820313 2.08337 0.411271 1.49732 0.997322C0.911271 1.58337 0.582031 2.37823 0.582031 3.20703V16.7945C0.582031 17.6233 0.911271 18.4182 1.49732 19.0042C2.08337 19.5903 2.87823 19.9195 3.70703 19.9195H22.2945C23.1233 19.9195 23.9182 19.5903 24.5042 19.0042C25.0903 18.4182 25.4195 17.6233 25.4195 16.7945V3.20703C25.4195 2.37823 25.0903 1.58337 24.5042 0.997322C23.9182 0.411271 23.1233 0.0820312 22.2945 0.0820312ZM3.70703 1.33203H22.2945C22.7677 1.33067 23.2236 1.50954 23.5695 1.83229C23.9155 2.15504 24.1256 2.59744 24.157 3.06953C21.0695 4.71953 17.9695 6.35703 14.8695 8.00703C14.4501 8.26985 14.0064 8.49171 13.5445 8.66953C13.1819 8.74109 12.8082 8.73463 12.4483 8.65058C12.0884 8.56652 11.7504 8.4068 11.457 8.18203C9.68203 7.24453 7.90703 6.29453 6.14453 5.35703C4.71953 4.60703 3.26953 3.84453 1.84453 3.08203C1.87352 2.60793 2.08244 2.16278 2.4286 1.83753C2.77476 1.51227 3.23204 1.33146 3.70703 1.33203ZM24.1695 16.7945C24.1695 17.2918 23.972 17.7687 23.6204 18.1204C23.2687 18.472 22.7918 18.6695 22.2945 18.6695H3.70703C3.20975 18.6695 2.73284 18.472 2.38121 18.1204C2.02958 17.7687 1.83203 17.2918 1.83203 16.7945V4.50078C4.78203 6.05078 7.71953 7.62578 10.6695 9.18828C11.1966 9.51142 11.764 9.7636 12.357 9.93828C13.225 10.0794 14.1146 9.89704 14.857 9.42578C16.6695 8.47578 18.4695 7.51328 20.282 6.56328C21.582 5.86328 22.8695 5.18828 24.1695 4.50078V16.7945Z" fill="#231F20"/>
</svg>
