<svg width="40" height="41" viewBox="0 0 40 41" fill="none" xmlns="http://www.w3.org/2000/svg">
<path d="M8.88328 5.95335C9.92319 5.58251 11.047 5.5144 12.1241 5.75693C13.2011 5.99946 14.1873 6.54268 14.9679 7.32345C15.7485 8.10421 16.2915 9.09047 16.5338 10.1676C16.776 11.2447 16.7077 12.3685 16.3366 13.4083L34.4116 31.4833L30.875 35.0183L12.8 16.945C11.7599 17.3161 10.6358 17.3843 9.55852 17.1417C8.48121 16.8991 7.49489 16.3557 6.71421 15.5747C5.93354 14.7937 5.3906 13.8071 5.1485 12.7297C4.90641 11.6523 4.97511 10.5283 5.34662 9.48835L9.07328 13.2167C9.54479 13.6721 10.1763 13.9241 10.8318 13.9184C11.4873 13.9127 12.1143 13.6497 12.5778 13.1862C13.0414 12.7227 13.3043 12.0957 13.31 11.4402C13.3157 10.7847 13.0637 10.1532 12.6083 9.68168L8.88328 5.95335ZM26.1616 9.09168L31.465 6.14501L33.8216 8.50335L30.875 13.805L27.9283 14.395L24.395 17.93L22.0366 15.5733L25.5716 12.0383L26.1616 9.09168ZM14.3766 22.055L17.9116 25.5917L9.66162 33.8417C9.20668 34.2924 8.59615 34.5513 7.95592 34.565C7.31569 34.5788 6.69459 34.3464 6.22071 33.9157C5.74682 33.485 5.45628 32.8888 5.409 32.2502C5.36173 31.6116 5.56132 30.9791 5.96662 30.4833L6.12828 30.305L14.3766 22.055Z" fill="#240C76"/>
</svg>
