<svg width="40" height="41" viewBox="0 0 40 41" fill="none" xmlns="http://www.w3.org/2000/svg">
<path d="M19.9998 3.45334C19.0959 3.45334 18.229 3.81243 17.5898 4.45162C16.9506 5.0908 16.5915 5.95773 16.5915 6.86167C16.5915 7.76562 16.9506 8.63254 17.5898 9.27173C18.229 9.91091 19.0959 10.27 19.9998 10.27C20.9038 10.27 21.7707 9.91091 22.4099 9.27173C23.0491 8.63254 23.4082 7.76562 23.4082 6.86167C23.4082 5.95773 23.0491 5.0908 22.4099 4.45162C21.7707 3.81243 20.9038 3.45334 19.9998 3.45334ZM12.2732 9.58834C11.3872 9.61604 10.5469 9.98745 9.92998 10.6239C9.3131 11.2604 8.96814 12.112 8.96814 12.9983C8.96814 13.8847 9.3131 14.7363 9.92998 15.3728C10.5469 16.0092 11.3872 16.3806 12.2732 16.4083C13.1776 16.4083 14.0449 16.0491 14.6844 15.4096C15.3239 14.7701 15.6832 13.9027 15.6832 12.9983C15.6832 12.094 15.3239 11.2266 14.6844 10.5871C14.0449 9.94761 13.1776 9.58834 12.2732 9.58834ZM27.7282 9.58834C26.8422 9.61604 26.0019 9.98745 25.385 10.6239C24.7681 11.2604 24.4231 12.112 24.4231 12.9983C24.4231 13.8847 24.7681 14.7363 25.385 15.3728C26.0019 16.0092 26.8422 16.3806 27.7282 16.4083C28.6326 16.4083 29.4999 16.0491 30.1394 15.4096C30.7789 14.7701 31.1382 13.9027 31.1382 12.9983C31.1382 12.094 30.7789 11.2266 30.1394 10.5871C29.4999 9.94761 28.6326 9.58834 27.7282 9.58834ZM2.24484 13.2283C1.6696 13.218 1.11318 13.4334 0.694844 13.8283C0.296957 14.2028 0.0520218 14.7115 0.00738526 15.2561C-0.0372513 15.8006 0.12158 16.3424 0.453178 16.7767C1.55318 18.2167 3.77484 21.1167 4.87318 22.5517C6.07544 24.1223 6.72679 26.0453 6.72651 28.0233C6.72651 30.555 7.90984 32.9667 9.97484 34.425C11.2657 35.3367 12.6762 36.0658 14.1665 36.5917V30.0367C14.1665 29.05 14.4848 28.0867 14.9532 27.2833C14.7834 25.709 14.0786 24.2406 12.9565 23.1233L3.90318 14.01C3.69574 13.7717 3.44109 13.579 3.15536 13.4442C2.86962 13.3094 2.55901 13.2353 2.24318 13.2267M37.7598 13.2267C37.185 13.2353 36.6365 13.4686 36.2315 13.8767L28.6565 21.5017L27.0432 23.125C25.9222 24.2419 25.2171 25.7087 25.0448 27.2817C25.4865 28.04 25.8015 28.9367 25.8315 29.8633V36.595C27.3227 36.0677 28.7338 35.3369 30.0248 34.4233C32.0882 32.965 33.2732 30.5517 33.2732 28.02C33.2717 26.0411 33.9225 24.1168 35.1248 22.545L39.5448 16.775C39.8764 16.3405 40.0353 15.7987 39.991 15.2539C39.9467 14.7092 39.7023 14.2002 39.3048 13.825C39.0991 13.6283 38.8566 13.4741 38.5912 13.3711C38.3258 13.2682 38.0428 13.2185 37.7582 13.225M19.9998 15.725C19.1139 15.7527 18.2735 16.1241 17.6567 16.7606C17.0398 17.3971 16.6948 18.2486 16.6948 19.135C16.6948 20.0214 17.0398 20.8729 17.6567 21.5094C18.2735 22.1459 19.1139 22.5173 19.9998 22.545C20.9042 22.545 21.7716 22.1857 22.4111 21.5462C23.0506 20.9067 23.4098 20.0394 23.4098 19.135C23.4098 18.2306 23.0506 17.3633 22.4111 16.7238C21.7716 16.0843 20.9042 15.725 19.9998 15.725ZM20.0032 25.2717C17.2398 25.2717 14.9998 27.405 14.9998 30.0383V36.8567C18.27 37.7747 21.7297 37.7747 24.9998 36.8567V29.89C24.9182 27.3267 22.7148 25.2733 20.0032 25.2733" fill="#240C76"/>
</svg>
