<svg width="30" height="30" viewBox="0 0 30 30" fill="none" xmlns="http://www.w3.org/2000/svg">
<circle cx="15" cy="15" r="15" fill="#D9D9D9"/>
<path d="M24.6484 22.8756C23.2206 20.4072 21.0203 18.6372 18.4525 17.7981C19.7226 17.042 20.7094 15.8898 21.2614 14.5185C21.8134 13.1473 21.8999 11.6327 21.5078 10.2075C21.1157 8.78226 20.2666 7.52515 19.0909 6.62921C17.9151 5.73327 16.4778 5.24805 14.9996 5.24805C13.5215 5.24805 12.0841 5.73327 10.9084 6.62921C9.73269 7.52515 8.88358 8.78226 8.49146 10.2075C8.09935 11.6327 8.18592 13.1473 8.73788 14.5185C9.28984 15.8898 10.2767 17.042 11.5468 17.7981C8.97902 18.6362 6.77871 20.4062 5.35089 22.8756C5.29853 22.961 5.2638 23.056 5.24875 23.155C5.2337 23.254 5.23863 23.355 5.26326 23.4521C5.28789 23.5492 5.33171 23.6404 5.39214 23.7202C5.45257 23.8001 5.52838 23.867 5.6151 23.9171C5.70183 23.9672 5.79771 23.9995 5.89709 24.0119C5.99647 24.0243 6.09733 24.0167 6.19373 23.9896C6.29012 23.9624 6.3801 23.9162 6.45835 23.8537C6.5366 23.7912 6.60154 23.7136 6.64933 23.6256C8.41558 20.5731 11.5375 18.7506 14.9996 18.7506C18.4618 18.7506 21.5837 20.5731 23.35 23.6256C23.3977 23.7136 23.4627 23.7912 23.5409 23.8537C23.6192 23.9162 23.7092 23.9624 23.8056 23.9896C23.902 24.0167 24.0028 24.0243 24.1022 24.0119C24.2016 23.9995 24.2975 23.9672 24.3842 23.9171C24.4709 23.867 24.5467 23.8001 24.6072 23.7202C24.6676 23.6404 24.7114 23.5492 24.736 23.4521C24.7607 23.355 24.7656 23.254 24.7505 23.155C24.7355 23.056 24.7008 22.961 24.6484 22.8756ZM9.74964 12.0006C9.74964 10.9622 10.0576 9.94721 10.6344 9.08385C11.2113 8.2205 12.0312 7.54759 12.9906 7.15023C13.9499 6.75287 15.0055 6.6489 16.0239 6.85147C17.0423 7.05405 17.9777 7.55406 18.712 8.28829C19.4462 9.02251 19.9462 9.95797 20.1488 10.9764C20.3513 11.9948 20.2474 13.0504 19.85 14.0097C19.4527 14.969 18.7797 15.7889 17.9164 16.3658C17.053 16.9427 16.038 17.2506 14.9996 17.2506C13.6077 17.2491 12.2732 16.6955 11.289 15.7113C10.3047 14.727 9.75113 13.3925 9.74964 12.0006Z" fill="#231F20"/>
</svg>
