<svg width="40" height="40" viewBox="0 0 40 40" fill="none" xmlns="http://www.w3.org/2000/svg">
<path d="M21.713 3.33398C23.588 3.33898 24.5397 3.34898 25.3613 3.37232L25.6847 3.38398C26.058 3.39732 26.4263 3.41398 26.8713 3.43398C28.6447 3.51732 29.8547 3.79732 30.9163 4.20898C32.0163 4.63232 32.943 5.20565 33.8697 6.13065C34.7172 6.96381 35.3729 7.97163 35.7913 9.08398C36.203 10.1457 36.483 11.3557 36.5663 13.1307C36.5863 13.574 36.603 13.9423 36.6163 14.3173L36.6263 14.6407C36.6513 15.4607 36.6613 16.4123 36.6647 18.2873L36.6663 19.5307V21.714C36.6704 22.9297 36.6576 24.1453 36.628 25.3607L36.618 25.684C36.6047 26.059 36.588 26.4273 36.568 26.8707C36.4847 28.6457 36.2013 29.854 35.7913 30.9173C35.3741 32.0303 34.7182 33.0383 33.8697 33.8707C33.0363 34.7179 32.0285 35.3736 30.9163 35.7923C29.8547 36.204 28.6447 36.484 26.8713 36.5673C26.4759 36.5859 26.0803 36.6026 25.6847 36.6173L25.3613 36.6273C24.5397 36.6507 23.588 36.6623 21.713 36.6657L20.4697 36.6673H18.288C17.0718 36.6715 15.8555 36.6587 14.6397 36.629L14.3163 36.619C13.9207 36.604 13.5251 36.5868 13.1297 36.5673C11.3563 36.484 10.1463 36.204 9.08299 35.7923C7.97077 35.3746 6.96335 34.7187 6.13133 33.8707C5.28307 33.0378 4.6267 32.0299 4.20799 30.9173C3.79633 29.8557 3.51633 28.6457 3.43299 26.8707C3.41442 26.4752 3.39776 26.0796 3.38299 25.684L3.37466 25.3607C3.34395 24.1453 3.33006 22.9297 3.33299 21.714V18.2873C3.32834 17.0717 3.34056 15.856 3.36966 14.6407L3.38133 14.3173C3.39466 13.9423 3.41133 13.574 3.43133 13.1307C3.51466 11.3557 3.79466 10.1473 4.20633 9.08398C4.62485 7.97049 5.28253 6.96236 6.13299 6.13065C6.96481 5.28311 7.97157 4.6273 9.08299 4.20898C10.1463 3.79732 11.3547 3.51732 13.1297 3.43398C13.573 3.41398 13.943 3.39732 14.3163 3.38398L14.6397 3.37398C15.855 3.34437 17.0707 3.33159 18.2863 3.33565L21.713 3.33398ZM19.9997 11.6673C17.7895 11.6673 15.6699 12.5453 14.1071 14.1081C12.5443 15.6709 11.6663 17.7905 11.6663 20.0007C11.6663 22.2108 12.5443 24.3304 14.1071 25.8932C15.6699 27.456 17.7895 28.334 19.9997 28.334C22.2098 28.334 24.3294 27.456 25.8922 25.8932C27.455 24.3304 28.333 22.2108 28.333 20.0007C28.333 17.7905 27.455 15.6709 25.8922 14.1081C24.3294 12.5453 22.2098 11.6673 19.9997 11.6673ZM19.9997 15.0007C20.6563 15.0005 21.3065 15.1298 21.9131 15.3809C22.5198 15.6321 23.0711 16.0003 23.5354 16.4645C23.9998 16.9287 24.3682 17.4799 24.6196 18.0865C24.8709 18.6931 25.0004 19.3432 25.0005 19.9998C25.0006 20.6564 24.8714 21.3066 24.6202 21.9133C24.369 22.52 24.0008 23.0712 23.5366 23.5356C23.0724 24 22.5213 24.3684 21.9147 24.6197C21.3081 24.8711 20.6579 25.0005 20.0013 25.0007C18.6752 25.0007 17.4035 24.4739 16.4658 23.5362C15.5281 22.5985 15.0013 21.3267 15.0013 20.0007C15.0013 18.6746 15.5281 17.4028 16.4658 16.4651C17.4035 15.5274 18.6752 15.0007 20.0013 15.0007M28.7513 9.16732C28.1988 9.16732 27.6689 9.38681 27.2782 9.77751C26.8875 10.1682 26.668 10.6981 26.668 11.2507C26.668 11.8032 26.8875 12.3331 27.2782 12.7238C27.6689 13.1145 28.1988 13.334 28.7513 13.334C29.3039 13.334 29.8338 13.1145 30.2245 12.7238C30.6152 12.3331 30.8347 11.8032 30.8347 11.2507C30.8347 10.6981 30.6152 10.1682 30.2245 9.77751C29.8338 9.38681 29.3039 9.16732 28.7513 9.16732Z" fill="black"/>
</svg>
