<svg width="170" height="90" viewBox="0 0 170 90" fill="none" xmlns="http://www.w3.org/2000/svg">
<g clip-path="url(#clip0_263_1105)">
<path d="M118.056 35.8242V50.0766C118.056 52.8131 120.927 53.9698 125.49 53.9698C126.432 53.9884 127.374 53.938 128.291 53.82V50.6123C127.946 50.6327 127.599 50.6412 127.252 50.6377C126.05 50.6377 125.067 50.3564 125.067 49.5675V35.8242H118.056ZM132.675 35.8242V50.0766C132.675 52.8131 135.549 53.9698 140.112 53.9698C141.06 53.9893 142.009 53.9389 142.931 53.82V50.6123C142.588 50.6326 142.242 50.6411 141.897 50.6377C140.674 50.6377 139.683 50.3564 139.683 49.5675V35.8242H132.675ZM47.5273 37.1461V40.6343H55.3327V53.8692H62.8645V40.6343H70.6713V37.1468L47.5273 37.1461ZM102.364 40.5773C94.867 40.5773 90.0659 43.4545 90.0659 47.4757C90.0659 51.6502 94.2056 54.1294 103.566 54.1294C106.343 54.1415 109.1 53.8806 111.697 53.3602V50.2418C109.293 50.6496 106.588 51.0546 103.812 51.0546C100.085 51.0546 97.4901 50.4063 96.8566 48.5318C98.8063 48.6446 100.766 48.7054 102.727 48.7139C108.059 48.7139 112.559 47.9573 112.559 45.2236C112.559 42.5707 107.932 40.5773 102.364 40.5773ZM158.192 40.583C150.662 40.583 146.289 43.3343 146.289 47.3555C146.289 51.3506 150.712 54.1758 158.192 54.1758C165.672 54.1758 169.999 51.3851 169.999 47.3555C169.999 43.3259 165.723 40.583 158.192 40.583ZM86.7721 40.6624C83.4332 40.6786 81.4955 41.6995 80.2563 43.3455V40.8516H73.2956V53.8692H80.255V47.0475C80.255 44.962 82.5394 44.3257 87.4574 44.5282V40.6723C87.2293 40.6645 87.0007 40.6612 86.7721 40.6624ZM102.221 43.4173C104.193 43.4173 105.778 44.1274 105.778 45.0963C105.778 46.343 103.293 46.7332 100.429 46.7332C99.2106 46.7297 97.9942 46.678 96.7902 46.5785C96.8803 45.9708 97.2101 45.3799 97.7584 44.8439C98.197 44.4187 98.8416 44.063 99.6258 43.8134C100.41 43.5638 101.306 43.4292 102.221 43.4236V43.4173ZM158.192 43.8827C161.678 43.8827 163.179 45.3973 163.179 47.3555C163.179 49.3137 161.717 50.8669 158.192 50.8669C154.667 50.8669 153.116 49.3137 153.116 47.3555C153.116 45.3937 154.706 43.8827 158.192 43.8827Z" fill="#293856"/>
<path d="M3.33095 35.8242H30.7767C31.2145 35.8235 31.6482 35.8686 32.053 35.9569C32.4578 36.0453 32.8255 36.1752 33.1351 36.3391C33.4447 36.503 33.69 36.6977 33.8569 36.9119C34.0238 37.1262 34.109 37.3559 34.1076 37.5877V52.1177C34.109 52.3495 34.0238 52.5792 33.8569 52.7935C33.69 53.0077 33.4447 53.2024 33.1351 53.3663C32.8255 53.5302 32.4578 53.6601 32.053 53.7485C31.6482 53.8368 31.2145 53.8819 30.7767 53.8812H3.33095C2.89314 53.8819 2.45936 53.8368 2.0546 53.7485C1.64984 53.6601 1.28208 53.5302 0.972497 53.3663C0.662911 53.2024 0.41761 53.0077 0.250711 52.7935C0.0838132 52.5792 -0.00138622 52.3495 1.70562e-05 52.1177V37.5877C-0.00138622 37.3559 0.0838132 37.1262 0.250711 36.9119C0.41761 36.6977 0.662911 36.503 0.972497 36.3391C1.28208 36.1752 1.64984 36.0453 2.0546 35.9569C2.45936 35.8686 2.89314 35.8235 3.33095 35.8242Z" fill="url(#paint0_linear_263_1105)"/>
<path d="M20.8705 38.1719H28.0756C28.9614 38.1719 29.6746 38.5502 29.6746 39.0184V45.2256C29.6753 45.3369 29.6344 45.4472 29.5543 45.55C29.4742 45.6529 29.3565 45.7464 29.2078 45.8251C29.0592 45.9037 28.8826 45.9661 28.6883 46.0085C28.494 46.0509 28.2857 46.0726 28.0756 46.0722H20.8705C20.6603 46.0726 20.452 46.0509 20.2577 46.0085C20.0634 45.9661 19.8868 45.9037 19.7382 45.8251C19.5896 45.7464 19.4718 45.6529 19.3917 45.55C19.3116 45.4472 19.2707 45.3369 19.2714 45.2256V39.0184C19.2709 38.9072 19.3119 38.797 19.3921 38.6943C19.4723 38.5915 19.5901 38.4981 19.7387 38.4195C19.8873 38.3408 20.0638 38.2786 20.258 38.2362C20.4523 38.1938 20.6604 38.1722 20.8705 38.1726V38.1719ZM6.03266 38.1719H13.2377C14.1236 38.1719 14.8368 38.5502 14.8368 39.0184V49.7397C14.8375 49.851 14.7966 49.9612 14.7165 50.0641C14.6364 50.167 14.5186 50.2604 14.37 50.3391C14.2214 50.4178 14.0448 50.4802 13.8505 50.5226C13.6562 50.565 13.4479 50.5866 13.2377 50.5863H6.03266C5.82248 50.5866 5.61422 50.565 5.4199 50.5226C5.22558 50.4802 5.04902 50.4178 4.90039 50.3391C4.75177 50.2604 4.63401 50.167 4.55389 50.0641C4.47378 49.9612 4.4329 49.851 4.4336 49.7397V39.0184C4.4336 38.5495 5.14681 38.1719 6.03266 38.1719Z" fill="white"/>
</g>
<defs>
<linearGradient id="paint0_linear_263_1105" x1="17.0544" y1="35.8242" x2="17.0544" y2="53.8818" gradientUnits="userSpaceOnUse">
<stop stop-color="#2684FF"/>
<stop offset="1" stop-color="#0052CC"/>
</linearGradient>
<clipPath id="clip0_263_1105">
<rect width="170" height="90" fill="white"/>
</clipPath>
</defs>
</svg>
