<svg width="150" height="90" viewBox="0 0 150 90" fill="none" xmlns="http://www.w3.org/2000/svg">
<path d="M125.029 1.67773H72.1074C72.1074 9.59352 82.7879 16.0004 95.975 16.0004H105.712V21.6535C105.712 29.5693 116.391 35.9769 129.584 35.9769V4.41008C129.583 3.68552 129.103 2.99087 128.249 2.47859C127.395 1.96632 126.237 1.67829 125.029 1.67773Z" fill="#2684FF"/>
<path d="M98.8047 17.5098H45.8828C45.8828 25.4255 56.5574 31.831 69.7504 31.831H79.4863V37.4855C79.4863 45.4013 90.1656 51.8096 103.359 51.8096V20.2428C103.358 19.5183 102.878 18.8235 102.024 18.3111C101.17 17.7987 100.012 17.5105 98.8047 17.5098Z" fill="url(#paint0_linear_263_1087)"/>
<path d="M72.5789 33.3379H19.6523C19.6523 41.2537 30.3316 47.6613 43.5234 47.6613H53.2617V53.3165C53.2617 61.2295 63.9398 67.637 77.1328 67.637V36.0709C77.1319 35.3464 76.6518 34.6517 75.798 34.1392C74.9443 33.6268 73.7865 33.3386 72.5789 33.3379Z" fill="url(#paint1_linear_263_1087)"/>
<path d="M53.907 71.1862H57.9312V83.1252C57.9312 86.2759 55.5371 88.4732 49.9789 88.4732C47.893 88.4732 46.2582 88.2644 45.1367 88.0281V85.7402C46.3637 86.0369 47.8414 86.1852 49.3203 86.1852C52.7352 86.1852 53.907 84.9991 53.907 83.2743V71.1862ZM65.3234 70.2637C66.9031 70.2637 68.0246 70.829 68.0246 71.8373C68.0246 72.8174 66.9031 73.4137 65.3234 73.4137C63.7449 73.4137 62.6234 72.8477 62.6234 71.8373C62.6234 70.8599 63.7449 70.2637 65.3234 70.2637ZM63.3371 75.284H67.2102V88.3551H63.3371V75.284ZM76.7902 88.3551H73.0203V75.284H76.7914V77.572C78.1191 76.0258 80.3621 74.9275 84.7426 75.0759V77.2752C79.7996 76.9785 76.7914 77.8384 76.7914 80.632L76.7902 88.3551ZM102.842 86.0066C101.414 87.7314 98.7125 88.6223 95.2426 88.6223C89.2836 88.6223 86.2754 85.6797 86.2754 81.8181C86.2754 78.1352 89.4336 75.0175 95.7055 75.0175C98.9644 75.0175 101.514 75.8774 102.842 77.572V75.284H106.715V88.3551H102.842V86.0066ZM96.2644 86.5424C99.7297 86.5424 102.787 85.2655 102.787 82.3539V81.3154C102.787 78.4045 99.9863 77.1269 96.6711 77.1269C92.341 77.1269 90.0969 78.7891 90.0969 81.8181C90.1484 84.9681 92.2906 86.5424 96.2644 86.5424Z" fill="#253858"/>
<defs>
<linearGradient id="paint0_linear_263_1087" x1="102.258" y1="17.5454" x2="90.5066" y2="37.7411" gradientUnits="userSpaceOnUse">
<stop offset="0.176" stop-color="#0052CC"/>
<stop offset="1" stop-color="#2684FF"/>
</linearGradient>
<linearGradient id="paint1_linear_263_1087" x1="77.5553" y1="33.4601" x2="63.5913" y2="56.1029" gradientUnits="userSpaceOnUse">
<stop offset="0.176" stop-color="#0052CC"/>
<stop offset="1" stop-color="#2684FF"/>
</linearGradient>
</defs>
</svg>
