<svg width="150" height="60" viewBox="0 0 150 60" fill="none" xmlns="http://www.w3.org/2000/svg">
<g clip-path="url(#clip0_263_1098)">
<path d="M145.327 36.6685L149.488 40.0503C148.138 42.4753 144.907 46.636 139.323 46.636C132.387 46.636 127.223 40.095 127.223 31.7739C127.223 22.9193 132.442 16.9121 138.739 16.9121C145.071 16.9121 148.174 23.0525 149.178 26.3675L149.726 28.0585L133.41 36.2903C134.651 39.2718 136.585 40.7846 139.323 40.7846C142.06 40.7846 143.958 39.1382 145.327 36.6685ZM132.534 31.3071L143.429 25.7893C142.827 23.9428 141.038 22.6303 138.903 22.6303C136.184 22.6303 132.406 25.5671 132.534 31.3071Z" fill="#FF302F"/>
<path d="M119.357 1.76172H124.613V45.2796H119.357V1.76172Z" fill="#20B15A"/>
<path d="M111.073 18.0696H116.146V44.5006C116.146 55.4688 110.835 59.9853 104.557 59.9853C98.6439 59.9853 95.0852 55.1353 93.7528 51.1974L98.4066 48.8388C99.246 51.2638 101.272 54.1342 104.557 54.1342C108.59 54.1342 111.073 51.086 111.073 45.3906V43.2549H110.89C109.685 45.0346 107.386 46.6363 104.466 46.6363C98.37 46.6363 92.7852 40.1621 92.7852 31.8192C92.7852 23.4313 98.37 16.8906 104.466 16.8906C107.368 16.8906 109.685 18.4703 110.89 20.2056H111.073V18.0696ZM111.437 31.8192C111.437 26.5685 108.572 22.7417 104.922 22.7417C101.235 22.7417 98.1327 26.5685 98.1327 31.8192C98.1327 37.0028 101.235 40.7628 104.922 40.7628C108.572 40.7853 111.438 37.0028 111.438 31.8192" fill="#3686F7"/>
<path d="M63.9314 31.7062C63.9314 40.2719 58.4564 46.568 51.7401 46.568C45.0241 46.568 39.5488 40.2498 39.5488 31.7062C39.5488 23.0962 45.0241 16.8223 51.7401 16.8223C58.4564 16.8223 63.9314 23.0962 63.9314 31.7062ZM58.6023 31.7062C58.6023 26.3669 55.4266 22.6955 51.7401 22.6955C48.0537 22.6955 44.8779 26.3669 44.8779 31.7062C44.8779 37.0012 48.0537 40.7169 51.7401 40.7169C55.4269 40.7169 58.6023 37.0012 58.6023 31.7062Z" fill="#FF302F"/>
<path d="M90.5584 31.7739C90.5584 40.3396 85.0831 46.6357 78.3671 46.6357C71.6508 46.6357 66.1758 40.3393 66.1758 31.7739C66.1758 23.1639 71.6508 16.9121 78.3671 16.9121C85.0831 16.9121 90.5584 23.1418 90.5584 31.7739ZM85.2108 31.7739C85.2108 26.4346 82.0353 22.7632 78.3486 22.7632C74.6622 22.7632 71.4864 26.4346 71.4864 31.7739C71.4864 37.0689 74.6622 40.7846 78.3486 40.7846C82.0535 40.7846 85.2108 37.0468 85.2108 31.7739Z" fill="#FFBA40"/>
<path d="M19.5096 40.1168C11.8625 40.1168 5.87656 32.5968 5.87656 23.2747C5.87656 13.9529 11.8625 6.43287 19.5096 6.43287C23.6343 6.43287 26.6454 8.41287 28.872 10.9493L32.5405 6.47751C29.438 2.85108 25.2951 0.0917969 19.5096 0.0917969C9.03389 0.092154 0.21875 10.5047 0.21875 23.2747C0.21875 36.0454 9.03389 46.4575 19.5096 46.4575C25.1674 46.4575 29.438 44.1882 32.7778 39.9611C36.2088 35.7782 37.2673 29.9047 37.2673 25.1436C37.2673 23.6529 37.1214 22.1179 36.957 20.9832H19.5096V27.1682H31.9382C31.5732 31.0396 30.5694 33.6872 29.0911 35.4889C27.3025 37.6918 24.4739 40.1168 19.5096 40.1168Z" fill="#3686F7"/>
</g>
<defs>
<clipPath id="clip0_263_1098">
<rect width="150" height="60" fill="white"/>
</clipPath>
</defs>
</svg>
