<svg width="180" height="60" viewBox="0 0 180 60" fill="none" xmlns="http://www.w3.org/2000/svg">
<g clip-path="url(#clip0_263_1092)">
<path d="M57.5137 47.023L59.7591 40.176C62.1856 42.5534 65.4087 43.7899 68.596 43.7899C70.95 43.7899 72.435 42.601 72.435 40.7945C72.3988 35.7545 58.3465 39.7007 58.2379 27.0531C58.2017 20.6345 62.548 15.6896 68.7046 15.6896C72.3626 15.6896 76.0206 16.878 78.6282 19.5882L76.5276 26.5777C74.1373 24.5807 71.1677 23.1545 68.3425 23.1545C66.423 23.1545 65.1556 24.343 65.1556 25.8647C65.1918 30.8096 79.3527 28.0994 79.4976 40.176C79.4976 46.7377 75.2602 51.3499 69.1757 51.3499C64.7207 51.3499 60.6282 49.9708 57.5137 47.023ZM143.675 37.7036L149.868 42.2207C147.55 47.6885 143.131 51.3499 138.025 51.3499C130.528 51.3499 124.443 43.362 124.443 33.5197C124.443 23.6774 130.528 15.6896 138.025 15.6896C143.095 15.6896 147.55 19.398 149.868 24.8188L143.675 29.3354C142.552 26.7679 140.451 25.009 138.025 25.009C134.439 25.009 131.542 28.8125 131.542 33.5197C131.542 38.227 134.439 42.0305 138.025 42.0305C140.451 42.0305 142.552 40.2711 143.674 37.7036M82.6121 0.902344H90.3626V50.6839H82.6121V0.902344ZM152.91 0.902344H160.66V30.1436L169.425 16.4027H178.914L168.085 32.9488L179.783 50.6839H169.86L160.66 35.7545V50.6839H152.91V0.902344ZM113.397 37.7991V29.383C112.274 26.9105 109.956 25.009 107.349 25.009C103.763 25.009 100.866 28.8125 100.866 33.5197C100.866 38.227 103.763 42.0305 107.349 42.0305C109.956 42.0305 112.274 40.224 113.397 37.7991ZM113.397 16.4027H121.148V50.6363H113.397V46.5951C112.129 49.4003 108.978 51.3499 105.683 51.3499C98.8736 51.3499 93.5137 43.362 93.5137 33.4722C93.5137 23.5823 98.8736 15.6896 105.683 15.6896C108.978 15.6896 112.129 17.6391 113.397 20.4443V16.4027Z" fill="black"/>
<path d="M9.59856 37.7526C9.59856 41.2233 7.46176 44.029 4.81766 44.029C4.18967 44.0298 3.56773 43.868 2.98743 43.5529C2.40713 43.2377 1.87988 42.7754 1.43584 42.1924C0.991797 41.6094 0.639695 40.9172 0.399684 40.1554C0.159672 39.3935 0.0364645 38.577 0.0371119 37.7526C0.0371119 34.2818 2.17391 31.4766 4.81766 31.4766H9.59856V37.7526ZM11.9888 37.7526C11.9888 34.2818 14.1256 31.4766 16.7694 31.4766C19.4131 31.4766 21.5503 34.2818 21.5503 37.7526V53.443C21.5503 56.9138 19.4135 59.7195 16.7694 59.7195C16.1414 59.7202 15.5195 59.5584 14.9393 59.2432C14.359 58.928 13.8318 58.4657 13.3878 57.8827C12.9438 57.2997 12.5917 56.6075 12.3517 55.8457C12.1117 55.0839 11.9885 54.2674 11.9892 53.443L11.9888 37.7526Z" fill="#E01E5A"/>
<path d="M16.7685 12.5525C16.1405 12.5532 15.5186 12.3913 14.9384 12.0762C14.3581 11.761 13.8309 11.2987 13.3869 10.7157C12.9429 10.1327 12.5908 9.44051 12.3508 8.67869C12.1108 7.91687 11.9876 7.1004 11.9883 6.276C11.9879 2.80523 14.1247 0 16.7685 0C19.4122 0 21.5494 2.80523 21.5494 6.276V12.5525H16.7685ZM16.7685 15.738C19.4122 15.738 21.5494 18.5432 21.5494 22.014C21.5494 25.4848 19.4126 28.2905 16.7685 28.2905H4.78055C4.15256 28.2913 3.53062 28.1294 2.95032 27.8143C2.37002 27.4991 1.84277 27.0368 1.39873 26.4539C0.954688 25.8709 0.602586 25.1786 0.362574 24.4168C0.122563 23.6549 -0.000644923 22.8384 2.5386e-06 22.014C2.5386e-06 18.5432 2.1368 15.7385 4.78055 15.7385L16.7685 15.738Z" fill="#36C5F0"/>
<path d="M35.9283 22.014C35.9283 18.5432 38.0651 15.738 40.7088 15.738C43.3526 15.738 45.4897 18.5432 45.4897 22.014C45.4897 25.4848 43.3529 28.2905 40.7088 28.2905H35.9283V22.014ZM33.5377 22.014C33.5377 25.4848 31.4012 28.2905 28.7571 28.2905C28.1291 28.2913 27.5072 28.1294 26.9269 27.8143C26.3466 27.4991 25.8193 27.0368 25.3753 26.4539C24.9313 25.8709 24.5791 25.1786 24.3391 24.4168C24.0991 23.6549 23.9759 22.8384 23.9766 22.014V6.276C23.9766 2.80523 26.1134 0 28.7571 0C31.4009 0 33.538 2.80523 33.538 6.276L33.5377 22.014Z" fill="#2EB67D"/>
<path d="M28.7571 47.167C31.4009 47.167 33.538 49.9723 33.538 53.443C33.538 56.9138 31.4012 59.7195 28.7571 59.7195C28.1291 59.7203 27.5072 59.5585 26.9269 59.2433C26.3466 58.9282 25.8193 58.4659 25.3753 57.8829C24.9313 57.2999 24.5791 56.6077 24.3391 55.8458C24.0991 55.084 23.9759 54.2675 23.9766 53.443V47.167H28.7571ZM28.7571 44.0286C28.1292 44.0294 27.5072 43.8676 26.927 43.5524C26.3467 43.2373 25.8194 42.7751 25.3754 42.1921C24.9314 41.6092 24.5793 40.917 24.3392 40.1552C24.0992 39.3934 23.976 38.577 23.9766 37.7526C23.9766 34.2818 26.1134 31.4766 28.7571 31.4766H40.7454C43.3891 31.4766 45.5259 34.2818 45.5259 37.7526C45.5259 41.2233 43.3891 44.029 40.745 44.029L28.7571 44.0286Z" fill="#ECB22E"/>
</g>
<defs>
<clipPath id="clip0_263_1092">
<rect width="180" height="60" fill="white"/>
</clipPath>
</defs>
</svg>
