<svg width="180" height="80" viewBox="0 0 180 80" fill="none" xmlns="http://www.w3.org/2000/svg">
<g clip-path="url(#clip0_263_1084)">
<path d="M3.75855 3.44548L38.3245 0.181664C42.5704 -0.284404 43.6616 0.0297538 46.331 2.5111L57.3652 12.4482C59.1852 14.1574 59.7909 14.6235 59.7909 16.4841V70.983C59.7909 74.3987 58.8206 76.419 55.4245 76.7277L15.2842 79.8342C12.7354 79.9889 11.5214 79.5228 10.1865 77.348L2.06156 63.841C0.603984 61.3547 0 59.494 0 57.3192V8.8756C0 6.08324 0.970312 3.75425 3.75855 3.44548Z" fill="white"/>
<path d="M38.3245 0.181603L3.75855 3.44542C0.970664 3.75419 0 6.08363 0 8.87554V57.3191C0 59.494 0.603984 61.3546 2.06156 63.8409L10.1865 77.3484C11.5214 79.5236 12.7354 79.9892 15.2842 79.8346L55.4245 76.7281C58.8185 76.4194 59.7909 74.3991 59.7909 70.9834V16.4841C59.7909 14.7187 59.2457 14.2104 57.6401 12.7039L57.363 12.4481L46.331 2.51104C43.6616 0.0301419 42.5707 -0.284465 38.3245 0.181603ZM16.1919 15.5919C12.9143 15.8742 12.1711 15.938 10.3096 14.0027L5.57648 9.18969C5.09555 8.56677 5.33707 7.78969 6.54891 7.63509L39.7782 4.53127C42.5682 4.2198 44.0216 5.46295 45.1129 6.54924L50.8124 11.8279C51.056 11.9852 51.6618 12.9142 50.933 12.9142L16.617 15.5546L16.1919 15.5919ZM12.3708 70.5173V24.2517C12.3708 22.231 12.8559 21.2989 14.3096 21.1421L53.7233 18.1928C55.06 18.0382 55.6639 19.1245 55.6639 21.1421V67.0994C55.6639 69.1196 55.4203 70.8288 53.2382 70.9829L15.5215 73.7785C13.3393 73.9326 12.3708 73.0036 12.3708 70.5173ZM49.6023 26.7326C49.8438 28.1304 49.6023 29.5277 48.5089 29.6872L46.6914 30.1479V64.307C45.1129 65.3928 43.6595 66.0131 42.4455 66.0131C40.5049 66.0131 40.0198 65.2355 38.5661 62.9092L26.6783 38.9991V62.1317L30.439 63.2207C30.439 63.2207 30.439 66.0162 27.405 66.0162L19.0406 66.6364C18.797 66.0131 19.0406 64.4612 19.8879 64.1524L22.0725 63.3776V32.791L19.0406 32.4773C18.797 31.0796 19.4027 29.0616 21.1018 28.9043L30.0765 28.1326L42.4455 52.3515V30.925L39.2931 30.4621C39.0495 28.7501 40.0198 27.507 41.2316 27.3555L49.6023 26.7326ZM86.278 56.5708V35.5146H86.5631L98.4407 56.5708H102.18V25.6279H98.0219V46.663H97.7368L85.8593 25.6279H82.105V56.5681H86.2801L86.278 56.5708ZM113.933 57.045C119.42 57.045 122.758 52.4553 122.758 44.8423C122.758 37.2499 119.403 32.6396 113.933 32.6396C108.481 32.6396 105.11 37.2715 105.11 44.8418C105.11 52.4553 108.431 57.045 113.933 57.045ZM113.933 52.5834C111.032 52.5834 109.372 49.7537 109.372 44.8423C109.372 39.9524 111.032 37.1012 113.933 37.1012C116.819 37.1012 118.479 39.9519 118.479 44.8423C118.479 49.7537 116.835 52.5834 113.933 52.5834ZM126.558 27.3659V33.2625H123.657V37.5083H126.558V50.3101C126.558 54.8567 128.236 56.68 132.446 56.68C133.25 56.68 134.023 56.5735 134.627 56.4221V52.2612C134.123 52.325 133.804 52.3677 133.217 52.3677C131.474 52.3677 130.701 51.3403 130.701 49.0239V37.5088H134.627V33.263H130.701V27.3632H126.558L126.558 27.3659ZM137.119 56.5708H141.263V33.1106H137.119V56.5708ZM139.183 29.2319C140.557 29.2319 141.665 27.8131 141.665 26.0351C141.665 24.254 140.559 22.8167 139.183 22.8167C137.825 22.8167 136.701 24.254 136.701 26.0346C136.701 27.8131 137.825 29.2292 139.183 29.2292V29.2319ZM152.63 57.045C158.115 57.045 161.453 52.4553 161.453 44.8423C161.453 37.2499 158.098 32.6396 152.63 32.6396C147.177 32.6396 143.806 37.2715 143.806 44.8418C143.806 52.4553 147.127 57.045 152.63 57.045ZM152.63 52.5834C149.728 52.5834 148.066 49.7537 148.066 44.8423C148.066 39.9524 149.728 37.1012 152.63 37.1012C155.514 37.1012 157.176 39.9519 157.176 44.8423C157.176 49.7537 155.531 52.5834 152.63 52.5834ZM163.929 56.5708H168.089V42.9124C168.089 39.4594 169.651 37.2715 172.131 37.2715C174.665 37.2715 175.837 39.0737 175.837 42.654V56.5708H180V41.3897C180 35.7915 177.768 32.6391 173.676 32.6391C170.94 32.6391 169.095 34.2472 168.223 36.8639H167.937V33.111H163.929V56.5708Z" fill="black"/>
</g>
<defs>
<clipPath id="clip0_263_1084">
<rect width="180" height="80" fill="white"/>
</clipPath>
</defs>
</svg>
