<svg width="150" height="80" viewBox="0 0 150 80" fill="none" xmlns="http://www.w3.org/2000/svg">
<g clip-path="url(#clip0_263_1109)">
<path d="M146.22 60.419L146.22 60.4253C146.311 63.1939 147.138 66.7171 148.571 66.7171H149.409C149.734 66.7171 150.001 66.0033 150.001 65.1328V15.7704H149.997C149.989 15.3672 149.923 14.9877 149.814 14.7093C149.705 14.4308 149.56 14.2746 149.409 14.2724H146.811C146.66 14.2744 146.515 14.4305 146.406 14.709C146.297 14.9874 146.231 15.3671 146.223 15.7704H146.22V19.7814C144.628 14.5288 142.118 12.3484 139.602 12.3484C133.882 12.3484 129.244 24.772 129.244 40.099C129.244 55.4261 133.882 67.8504 139.602 67.8504V67.852C142.119 67.852 144.861 65.2363 146.22 60.4198M139.612 58.1375C135.974 58.1375 133.024 50.0622 133.024 40.0982C133.024 30.1375 135.974 22.0606 139.612 22.0606C143.25 22.0606 146.199 30.1375 146.199 40.099C146.199 49.9626 143.309 57.9767 139.721 58.1359L139.612 58.1375ZM125.96 62.1241L125.959 36.5806C125.959 22.1814 122.569 12.4677 117.162 12.4677C114.581 12.4677 112.466 16.4661 111.718 19.9006L111.706 19.7045L111.692 19.5069L111.684 19.4088L111.668 19.212L111.65 19.0159L111.631 18.8198L111.61 18.6253C111.596 18.4956 111.58 18.3669 111.563 18.2394L111.537 18.0488C111.25 16.0582 110.642 14.3924 109.374 14.3924H108.533C108.208 14.3924 107.941 15.1061 107.941 15.9767V65.3445H107.945C107.953 65.7478 108.019 66.1275 108.128 66.4059C108.237 66.6844 108.382 66.8406 108.533 66.8426H111.131C111.171 66.8426 111.21 66.8292 111.247 66.8096L111.264 66.7979L111.297 66.7696L111.336 66.7398L111.355 66.7218L111.378 66.6935L111.452 66.5814C111.47 66.5508 111.486 66.5178 111.502 66.4826L111.525 66.4277C111.529 66.4175 111.534 66.4112 111.537 66.4018C111.646 66.1247 111.711 65.7463 111.719 65.3445H111.722V36.1837C111.722 28.4504 114.062 22.1814 116.949 22.1814C119.835 22.1814 122.175 28.4512 122.175 36.1845L122.178 60.5586L122.179 60.55L122.18 60.6167V65.3445H122.183C122.192 65.7478 122.257 66.1275 122.366 66.4059C122.476 66.6844 122.62 66.8406 122.771 66.8426H125.369C125.409 66.8426 125.448 66.8292 125.486 66.8096C125.501 66.8018 125.515 66.7861 125.53 66.7743L125.573 66.7414L125.594 66.7218C125.615 66.6982 125.634 66.6653 125.654 66.6355C125.667 66.6167 125.68 66.6026 125.692 66.5814C125.715 66.5398 125.737 66.4888 125.759 66.4379L125.776 66.4002C125.792 66.3584 125.807 66.3139 125.822 66.2669L125.847 66.1806C125.905 65.9655 125.942 65.7146 125.954 65.4512L125.957 65.3445H125.961V62.1249L125.96 62.1241ZM98.9031 60.4198V60.4261C98.9942 63.1947 99.8213 66.7179 101.254 66.7179H102.093C102.418 66.7179 102.684 66.0041 102.684 65.1335V15.7704H102.68C102.672 15.3672 102.607 14.9877 102.498 14.7093C102.388 14.4308 102.243 14.2746 102.093 14.2724H99.4946C99.3437 14.2742 99.1987 14.4303 99.0894 14.7087C98.98 14.9872 98.9146 15.367 98.9063 15.7704H98.9034V19.7814C97.3114 14.5288 94.8018 12.3484 92.2852 12.3484C86.565 12.3484 81.9279 24.772 81.9279 40.099C81.9279 55.4261 86.565 67.8504 92.2852 67.8504V67.852C94.8018 67.852 97.5446 65.2363 98.9031 60.4198ZM92.2952 58.1375C88.6574 58.1375 85.7081 50.0622 85.7081 40.0982C85.7081 30.1375 88.6574 22.0606 92.2952 22.0606C95.9336 22.0606 98.8823 30.1375 98.8823 40.099C98.8823 49.9626 95.9922 57.9767 92.4042 58.1359L92.2952 58.1375ZM66.5641 53.3563C68.2984 56.5751 70.1916 58.1382 72.0106 58.1382C72.3681 58.1382 72.7278 58.0363 73.0741 57.8371L73.1775 57.7743C73.2289 57.7419 73.28 57.7069 73.3308 57.6692L73.4315 57.5924C73.4651 57.5657 73.4984 57.5382 73.5314 57.51L73.6299 57.4214C73.8584 57.2088 74.0752 56.95 74.2759 56.6465L74.3608 56.5139C75.0596 55.3877 75.5356 53.7014 75.5356 51.5414C75.5356 48.6324 74.4798 47.001 73.1216 45.7908L72.9634 45.6535L72.8834 45.5853L72.722 45.4528L72.5582 45.3233L72.393 45.1963L72.1419 45.0096L71.8885 44.8284L71.548 44.5916L70.697 44.0112L70.3621 43.7775L70.1148 43.5994L69.9522 43.4786L69.7923 43.3563L69.7132 43.2943L69.5564 43.1688L69.4794 43.1061L69.327 42.9759C69.2771 42.932 69.2274 42.8878 69.1782 42.8433C66.7249 40.6104 64.6117 35.9924 64.6117 28.5155C64.6117 17.0731 68.4171 12.3477 71.9685 12.3477C74.2187 12.3477 76.5408 14.3359 78.0461 17.1837C78.3306 17.7618 78.3637 18.3861 78.3358 18.8324L78.3291 18.9249L78.3206 19.0112L78.3112 19.092L78.3013 19.1657L78.291 19.2316L78.2764 19.3155L78.2635 19.3798L78.2488 19.4441L76.8118 24.9422C76.8028 24.9772 76.7935 25.0112 76.7837 25.0441L76.7535 25.1445C76.5912 25.6496 76.3393 25.9994 75.9959 25.4794L75.9461 25.3994L75.6956 24.9759L75.6057 24.8292L75.5069 24.6724L75.4363 24.5626L75.3616 24.4504L75.3227 24.3924L75.2421 24.2755L75.1577 24.1579L75.0698 24.0371L74.9775 23.9163L74.8817 23.7947L74.7821 23.6731L74.679 23.5524L74.5721 23.4324L74.4616 23.3147C73.667 22.4848 72.8214 22.0592 71.9685 22.0598C69.8017 22.0598 68.4965 24.7422 68.4965 28.0645C68.4965 29.9524 68.877 31.2269 69.4891 32.19L69.572 32.3171C69.6985 32.5037 69.8335 32.6799 69.9769 32.8457L70.0735 32.9547L70.1228 33.008L70.2224 33.1131L70.2733 33.1649L70.3765 33.2669L70.4813 33.3665L70.5883 33.4637L70.6425 33.5116L70.7523 33.6057L70.9199 33.7453L71.0913 33.881L71.2659 34.0143L71.384 34.1022L71.5035 34.1892L71.7461 34.3618L72.1797 34.6614L72.5966 34.9641L72.9101 35.1963L73.1195 35.3547L73.2241 35.4347L73.433 35.5971L73.5373 35.6794L73.7456 35.8473L73.953 36.0198C76.818 38.4261 79.4201 42.1014 79.4201 51.5414C79.4201 61.6229 75.9004 67.8528 72.0109 67.8528C69.0628 67.8528 66.5532 65.6018 64.4482 61.4629C64.1834 60.7524 64.1904 60.0732 64.2373 59.6465L64.2476 59.5618L64.2584 59.4849L64.2695 59.4159L64.2807 59.3555L64.2953 59.2818L64.3161 59.1955L65.7458 53.7249C65.991 52.8637 66.2898 52.9806 66.4738 53.2167L66.5069 53.2622L66.5371 53.3092L66.5641 53.3563ZM56.5765 60.4198V60.4261C56.6673 63.1947 57.4946 66.7179 58.9275 66.7179H59.7663C60.0915 66.7179 60.3578 66.0041 60.3578 65.1335V15.7704H60.354C60.3458 15.3672 60.2804 14.9877 60.1712 14.7093C60.0619 14.4308 59.9171 14.2746 59.7663 14.2724H57.1683C57.0173 14.2742 56.8724 14.4303 56.763 14.7087C56.6537 14.9872 56.5882 15.367 56.58 15.7704H56.577V19.7814C54.9853 14.5288 52.4755 12.3484 49.9589 12.3484C44.239 12.3484 39.6016 24.772 39.6016 40.099C39.6016 55.4261 44.239 67.8504 49.9592 67.8504V67.852C52.4758 67.852 55.218 65.2363 56.5768 60.4198M49.9691 58.1375C46.3311 58.1375 43.3817 50.0622 43.3817 40.0982C43.3817 30.1375 46.3311 22.0606 49.9691 22.0606C53.6072 22.0606 56.5562 30.1375 56.5562 40.099C56.5562 49.9626 53.6658 57.9767 50.0781 58.1359L49.9691 58.1375Z" fill="#0D0E10"/>
<path d="M25.0796 41.9859C21.23 41.9859 18.1093 50.3404 18.1093 60.6463C18.1093 70.9522 21.23 79.3067 25.0796 79.3067C28.9292 79.3067 32.0496 70.9522 32.0496 60.6463C32.0496 50.3404 28.9292 41.9859 25.0796 41.9859ZM6.97031 41.9875C3.1207 41.9875 0 50.3404 0 60.6463C0 70.9522 3.1207 79.3067 6.97031 79.3067C10.8199 79.3067 13.9409 70.9522 13.9409 60.6463C13.9409 50.3404 10.8199 41.9875 6.97031 41.9875ZM22.9951 18.6588C22.9951 28.9655 19.8744 37.3208 16.0248 37.3208C12.1752 37.3208 9.05478 28.9663 9.05478 18.6596C9.05478 8.3553 12.1752 0 16.0248 0C19.8744 0 22.9951 8.35451 22.9951 18.6588Z" fill="#F06A6A"/>
</g>
<defs>
<clipPath id="clip0_263_1109">
<rect width="150" height="80" fill="white"/>
</clipPath>
</defs>
</svg>
