<svg width="40" height="40" viewBox="0 0 40 40" fill="none" xmlns="http://www.w3.org/2000/svg">
<g clip-path="url(#clip0_263_1038)">
<path fill-rule="evenodd" clip-rule="evenodd" d="M20.0007 6.66602C21.4257 6.66602 22.8873 6.70268 24.304 6.76268L25.9773 6.84268L27.579 6.93768L29.079 7.03935L30.449 7.14602C31.9357 7.25981 33.3347 7.89426 34.3999 8.93775C35.465 9.98124 36.128 11.3669 36.2723 12.851L36.339 13.5593L36.464 15.076C36.5807 16.6477 36.6673 18.361 36.6673 19.9993C36.6673 21.6377 36.5807 23.351 36.464 24.9227L36.339 26.4393C36.3173 26.6827 36.2957 26.9177 36.2723 27.1477C36.128 28.632 35.4647 30.0179 34.3992 31.0615C33.3338 32.105 31.9344 32.7393 30.4473 32.8527L29.0807 32.9577L27.5807 33.061L25.9773 33.156L24.304 33.236C22.8704 33.2983 21.4356 33.3305 20.0007 33.3327C18.5657 33.3305 17.1309 33.2983 15.6973 33.236L14.024 33.156L12.4223 33.061L10.9223 32.9577L9.55232 32.8527C8.06557 32.7389 6.66657 32.1044 5.60144 31.0609C4.53631 30.0175 3.87327 28.6318 3.72898 27.1477L3.66232 26.4393L3.53732 24.9227C3.40988 23.2846 3.34206 21.6424 3.33398 19.9993C3.33398 18.361 3.42065 16.6477 3.53732 15.076L3.66232 13.5593C3.68398 13.316 3.70565 13.081 3.72898 12.851C3.87322 11.3672 4.53601 9.98171 5.6008 8.93825C6.6656 7.8948 8.0642 7.26019 9.55065 7.14602L10.919 7.03935L12.419 6.93768L14.0223 6.84268L15.6957 6.76268C17.1298 6.7004 18.5651 6.66817 20.0007 6.66602ZM16.6673 15.9577V24.041C16.6673 24.811 17.5007 25.291 18.1673 24.9077L25.1673 20.866C25.3196 20.7783 25.4462 20.6521 25.5341 20.4999C25.6221 20.3478 25.6684 20.1751 25.6684 19.9993C25.6684 19.8236 25.6221 19.6509 25.5341 19.4988C25.4462 19.3466 25.3196 19.2204 25.1673 19.1327L18.1673 15.0927C18.0153 15.0049 17.8427 14.9587 17.6672 14.9587C17.4916 14.9587 17.3191 15.005 17.167 15.0928C17.015 15.1807 16.8888 15.307 16.8011 15.4591C16.7133 15.6112 16.6672 15.7838 16.6673 15.9593V15.9577Z" fill="black"/>
</g>
<defs>
<clipPath id="clip0_263_1038">
<rect width="40" height="40" fill="white"/>
</clipPath>
</defs>
</svg>
